# xmcd
#
# Track frame offsets:
# 150
# 16303
# 31185
# 45818
# 63952
# 78234
# 94189
# 108859
# 126544
# 139039
# 154295
# 167302
#
# Disc length: 2493 seconds
#
#
# Revision: 0
# Processed by: cddbd v1.5PL3 Copyright (c) Steve Scherf et al.
# Submitted via: FreeRIP 2.53 
#
DISCID=8809bb0c
DTITLE=Tillis, Pam - Greatest Hits
DYEAR=1900
DGENRE=
TTITLE0=Land Of The Living
TTITLE1=The Good Ones Are Gone
TTITLE2=Don't Tell Me What To Do
TTITLE3=Maybe It Was Memphis
TTITLE4=Shake The Sugar Tree
TTITLE5=Let That Pony Run
TTITLE6=Cleopatra Queen of Denial
TTITLE7=Spilled Perfume
TTITLE8=When You Walk In The Room
TTITLE9=In Between Dances
TTITLE10=Mi Vida Loca(My Crazy Life)
TTITLE11=The River And The Highway
EXTD=
EXTT0=
EXTT1=
EXTT2=
EXTT3=
EXTT4=
EXTT5=
EXTT6=
EXTT7=
EXTT8=
EXTT9=
EXTT10=
EXTT11=
PLAYORDER=
